# xmcd
#
# Track frame offsets:
#	150
#	15114
#	30899
#	48234
#	64689
#	79228
#	91742
#	105793
#	120674
#	140064
#	156788
#	170802
#	188145
#	206624
#	222290
#	240866
#	256819
#	273987
#	290326
#	309900
#
# Disc length: 4321 seconds
# Revision: 0
# Processed by: cddbd v1.5.2PL0 Copyright (c) Steve Scherf et al.
# Submitted via: dBpowerAMP V12.0
#
DISCID=fb10df14
DTITLE=Steve Wariner - Heart Trouble Cd 1
DYEAR=2015
DGENRE=Country
TTITLE0=Back Up Grinnin' Again
TTITLE1=Heart Trouble
TTITLE2=I Get Dreams
TTITLE3=Baby I'm Yours
TTITLE4=One Good Night Deserves Another
TTITLE5=Precious Thing
TTITLE6=The Hand That Rocks The Cradle
TTITLE7=Life's Highway
TTITLE8=Starting Over Again
TTITLE9=Small Town Girl
TTITLE10=Lynda
TTITLE11=The Weekend
TTITLE12=Some Fools Never Learn
TTITLE13=I Should Be With You
TTITLE14=Hold On
TTITLE15=Where Did I Go Wrong
TTITLE16=When I Could Come Home To You
TTITLE17=The Domino Theory
TTITLE18=There For Awhile
TTITLE19=What I Didn't Do
EXTD=
EXTT0=
EXTT1=
EXTT2=
EXTT3=
EXTT4=
EXTT5=
EXTT6=
EXTT7=
EXTT8=
EXTT9=
EXTT10=
EXTT11=
EXTT12=
EXTT13=
EXTT14=
EXTT15=
EXTT16=
EXTT17=
EXTT18=
EXTT19=
PLAYORDER=
